<svg xmlns="http://www.w3.org/2000/svg" viewBox="0 0 64 64"><title>baby-teeth-dentist-dental-medical</title><g id="outline"><path d="M9.205,28H9A6,6,0,0,0,9,40h.025a23,23,0,0,0,45.95,0H55a6,6,0,0,0,0-12h-.2A22.831,22.831,0,0,0,40.439,9.6,11.938,11.938,0,0,0,33,7H30.294a2.3,2.3,0,0,1-1.973-3.485A1,1,0,0,0,27.463,2H27a6.567,6.567,0,0,0-.771.047,8.956,8.956,0,0,0-8.057,10.582A23.113,23.113,0,0,0,9.205,28ZM5,34a4,4,0,0,1,4-4h.03c-.015.333-.03.665-.03,1v7A4,4,0,0,1,5,34Zm50-4a4,4,0,0,1,0,8V31c0-.336-.023-.667-.038-1ZM18.815,14.663A9.027,9.027,0,0,0,27.007,20H30V18H27.007a7.031,7.031,0,0,1-6.554-4.542,6.886,6.886,0,0,1,.211-5.4,6.386,6.386,0,0,0,.213,1.958A6.777,6.777,0,0,0,27.4,15H31a5.006,5.006,0,0,1,5,5h2a7.008,7.008,0,0,0-7-7H27.4a4.772,4.772,0,0,1-4.6-3.51A4.345,4.345,0,0,1,26.03,4.109a4.272,4.272,0,0,0,.521,2.709A4.252,4.252,0,0,0,30.294,9H33A10.011,10.011,0,0,1,43,19v1h2V19a11.9,11.9,0,0,0-1.332-5.469A20.853,20.853,0,0,1,53,31v8a21,21,0,0,1-42,0V31A21.091,21.091,0,0,1,18.815,14.663Z"/><path d="M19,35a4,4,0,1,0-4-4A4,4,0,0,0,19,35Zm0-6a2,2,0,1,1-2,2A2,2,0,0,1,19,29Z"/><path d="M45,35a4,4,0,1,0-4-4A4,4,0,0,0,45,35Zm0-6a2,2,0,1,1-2,2A2,2,0,0,1,45,29Z"/><path d="M21,39a11,11,0,0,0,22,0,1,1,0,0,0-1-1H22A1,1,0,0,0,21,39Zm12,1h2v2H33Zm-2,0v2H29V40Zm-4,0v3a1,1,0,0,0,1,1h8a1,1,0,0,0,1-1V40h3.945a9,9,0,0,1-17.89,0Z"/></g></svg>