<svg xmlns="http://www.w3.org/2000/svg" viewBox="0 0 64 64"><title>dental-implant-medical-healthcar</title><g id="outline"><path d="M40.7,2a9.242,9.242,0,0,0-3.662.752,12.854,12.854,0,0,1-10.082,0h0A9.3,9.3,0,0,0,14,11.3a25.284,25.284,0,0,0,2.616,11.171l1.425,4.816A1,1,0,0,0,19,28h3v5a1,1,0,0,0,1,1h3v2.327l-2.89-.321-.22,1.988L26,38.34v3.987l-2.89-.321-.22,1.988L26,44.34v3.987l-2.89-.321-.22,1.988L26,50.34v3.987l-2.89-.321-.22,1.988,3.177.353c0,.008,0,.016,0,.024l2,5A1,1,0,0,0,29,62h6a1,1,0,0,0,.929-.629l1.5-3.761,3.457.384.22-1.988L38,55.66V51.673l2.89.321.22-1.988L38,49.66V45.673l2.89.321.22-1.988L38,43.66V39.673l2.89.321.22-1.988L38,37.66V34h3a1,1,0,0,0,1-1V28h3a1,1,0,0,0,.959-.716l1.425-4.816A25.284,25.284,0,0,0,50,11.3,9.307,9.307,0,0,0,40.7,2Zm-6.38,58H29.677l-1.361-3.4,7.055.784ZM36,55.438l-8-.889V50.562l8,.889Zm0-6-8-.889V44.562l8,.889Zm0-6-8-.889V38.562l8,.889Zm0-6-8-.889V34h8ZM40,32H24V28H40Zm5.555-10.347a1.02,1.02,0,0,0-.064.163L44.253,26H19.747l-1.238-4.184a1.02,1.02,0,0,0-.064-.163A23.265,23.265,0,0,1,16,11.3,7.3,7.3,0,0,1,26.171,4.59a14.857,14.857,0,0,0,11.657,0A7.3,7.3,0,0,1,48,11.3,23.265,23.265,0,0,1,45.555,21.653Z"/><path d="M18,11.805V13h2v-1.2a4.612,4.612,0,0,1,2.5-3.937L21.5,6.132A6.584,6.584,0,0,0,18,11.805Z"/></g></svg>