<svg id="icons" enable-background="new 0 0 64 64" height="300" viewBox="0 0 64 64" width="300" xmlns="http://www.w3.org/2000/svg" version="1.1" xmlns:xlink="http://www.w3.org/1999/xlink" xmlns:svgjs="http://svgjs.dev/svgjs"><g transform="matrix(1,0,0,1,0,0)"><g><path d="m3.015 23.559c.004.069.022.134.041.202.012.042.01.086.027.126.008.019.023.033.032.052.011.021.01.043.021.063.318.551 7.959 13.5 21.862 13.5h.002.001 13.999c13.903 0 21.545-12.949 21.863-13.5.012-.02.012-.043.021-.063.03-.062.047-.125.064-.191.016-.062.032-.121.036-.183.005-.063-.005-.124-.013-.187-.008-.064-.015-.127-.035-.189-.02-.058-.05-.109-.08-.163-.033-.061-.066-.119-.112-.172-.015-.017-.021-.039-.036-.055-1.24-1.258-12.286-12.298-17.708-12.298-2.987 0-5.081.634-6.93 1.193-1.431.433-2.667.807-4.07.807-1.404 0-2.641-.372-4.072-.803-1.848-.557-3.941-1.187-6.928-1.187-5.422 0-16.466 11.03-17.707 12.288-.016.016-.021.037-.034.053-.046.052-.079.108-.112.167-.021.036-.049.065-.065.104-.008.021-.009.042-.016.063-.022.068-.03.136-.039.207-.001.008-.003.016-.004.023-.003.03-.018.056-.018.086 0 .001.001.002.001.003 0 .018.008.035.009.054zm35.985 11.943h-13.999-.001-.001c-10.033 0-16.705-7.681-19.12-11h52.245c-2.408 3.319-9.067 11-19.124 11zm-11.648-21.889c1.517.457 2.949.888 4.648.888s3.133-.434 4.65-.893c1.799-.544 3.658-1.107 6.35-1.107 3.326 0 10.521 6.175 14.543 10h-51.083c4.022-3.822 11.212-9.99 14.54-9.99 2.691 0 4.552.56 6.352 1.102z" fill="#f4f4f4" fill-opacity="1" data-original-color="#000000ff" stroke="none" stroke-opacity="1"/><path d="m62.999 42.498c-.552 0-1 .447-1 1l-.001 2.998-11.994-.003v-3.995c0-.552-.447-1-1-1-.552 0-1 .447-1 1l-28.994.002c-.031 0-.058.015-.088.018-.067.006-.131.02-.197.04-.065.02-.127.044-.186.076-.027.015-.058.017-.084.034l-2.748 1.832h-2.699-.001c-.093 0-.176.029-.261.053-.042.012-.089.009-.128.025-.024.011-.042.032-.065.045-.32.166-.545.491-.545.877v.001.999l-11.007-.002c-.552 0-1 .447-1 1 0 .552.447 1 1 1l11.009.002v.998c0 .553.447 1 1 1h.001 2.716l2.729 1.815c.035.023.073.033.11.052.032.016.063.032.097.045.112.042.229.07.346.07h.001l13.841-.001c.051.008.097.03.149.03s.099-.022.149-.03l14.854-.001v.02c0 .552.447 1 1 1 .552 0 1-.447 1-1v-4.005l11.995.003-.001 3.002c0 .552.447 1 1 1 .552 0 1-.447 1-1l.002-8c0-.552-.447-1-1-1zm-14.995 3.995-11.004-.003v-1.991l11.004-.001zm-28.691 3.987-2.296-1.527-.006-2.919 2.302-1.534 12.687-.001v5.98zm-5.305-3.98h1.004l.004 1.998h-1.006zm19.992-2.001h1v5.98h-1zm14.003 5.98h-11.003v-1.989l11.003.003z" fill="#f4f4f4" fill-opacity="1" data-original-color="#000000ff" stroke="none" stroke-opacity="1"/></g></g></svg>