<svg xmlns="http://www.w3.org/2000/svg" viewBox="0 0 64 64"><title>tooth-orthodontics-dental-medical-healthcare</title><g id="outline"><path d="M60,21.242a5.243,5.243,0,0,0-8.95-3.707,1.488,1.488,0,0,1-2.1,0h0A5.224,5.224,0,0,0,41,18.188a5.224,5.224,0,0,0-7.95-.653,1.488,1.488,0,0,1-2.1,0h0A5.224,5.224,0,0,0,23,18.188a5.224,5.224,0,0,0-7.95-.653,1.488,1.488,0,0,1-2.1,0h0A5.243,5.243,0,0,0,4,21.242c0,.924.053,1.843.136,2.758H2v2H4.379a30.4,30.4,0,0,0,.927,3.968c-.1-.01-.2-.038-.306-.038a3.4,3.4,0,0,0-2.832,1.515A1.006,1.006,0,0,0,2,32V48a1,1,0,0,0,1,1H61a1,1,0,0,0,1-1V32a1.006,1.006,0,0,0-.168-.555A3.4,3.4,0,0,0,59,29.93c-.1,0-.2.028-.306.038A30.4,30.4,0,0,0,59.621,26H62V24H59.864C59.947,23.085,60,22.166,60,21.242ZM45.243,18a3.223,3.223,0,0,1,2.293.95,3.49,3.49,0,0,0,4.928,0A3.243,3.243,0,0,1,58,21.242c0,.924-.06,1.843-.149,2.758H53V23a1,1,0,0,0-1-1H48a1,1,0,0,0-1,1v1H42.149C42.06,23.085,42,22.166,42,21.242A3.246,3.246,0,0,1,45.243,18ZM51,24v2H49V24Zm-9.444,6.83.077.232a3.9,3.9,0,0,0-1.266,0l.077-.232c.212-.634.387-1.276.556-1.921C41.169,29.554,41.344,30.2,41.556,30.83ZM23,28.909c.169.645.344,1.287.556,1.921l.136.41a3.832,3.832,0,0,0-1.384,0l.136-.41C22.656,30.2,22.831,29.554,23,28.909ZM25.453,30.2A28.287,28.287,0,0,1,24.41,26H29v1a1,1,0,0,0,1,1h4a1,1,0,0,0,1-1V26h4.59a28.287,28.287,0,0,1-1.043,4.2l-.5,1.487a1.027,1.027,0,0,0-.048.233l-.876,10.518a.625.625,0,0,1-1.245,0l-.731-9.508a3.165,3.165,0,0,0-6.311-.017c-.208,2.534-.58,7.142-.738,9.523a.616.616,0,0,1-1.229.006L26,31.917a1.027,1.027,0,0,0-.048-.233ZM31,26V24h2v2Zm-3.757-8a3.223,3.223,0,0,1,2.293.95,3.49,3.49,0,0,0,4.928,0A3.243,3.243,0,0,1,40,21.242c0,.924-.06,1.843-.149,2.758H35V23a1,1,0,0,0-1-1H30a1,1,0,0,0-1,1v1H24.149C24.06,23.085,24,22.166,24,21.242A3.246,3.246,0,0,1,27.243,18ZM6,21.242a3.243,3.243,0,0,1,5.536-2.292,3.49,3.49,0,0,0,4.928,0A3.243,3.243,0,0,1,22,21.242c0,.924-.06,1.843-.149,2.758H17V23a1,1,0,0,0-1-1H12a1,1,0,0,0-1,1v1H6.149C6.06,23.085,6,22.166,6,21.242ZM15,24v2H13V24Zm-4,2v1a1,1,0,0,0,1,1h4a1,1,0,0,0,1-1V26h4.59a28.287,28.287,0,0,1-1.043,4.2l-.5,1.487a1.027,1.027,0,0,0-.048.233l-.876,10.518a.625.625,0,0,1-1.245,0l-.731-9.508a3.165,3.165,0,0,0-6.311-.017c-.208,2.534-.58,7.142-.738,9.523a.616.616,0,0,1-1.229.006L8,31.917a1.027,1.027,0,0,0-.048-.233l-.5-1.487A28.287,28.287,0,0,1,6.41,26Zm49,6.347V47H4V32.347a1.445,1.445,0,0,1,2.029.047L6.88,42.6a2.616,2.616,0,0,0,5.217-.039c.158-2.368.529-6.963.736-9.493a1.166,1.166,0,0,1,2.324.008l.731,9.508a2.625,2.625,0,0,0,5.232.016l.753-9.029a1.818,1.818,0,0,1,2.254,0L24.88,42.6a2.616,2.616,0,0,0,5.217-.039c.158-2.368.529-6.963.736-9.493a1.166,1.166,0,0,1,2.324.008l.731,9.508a2.625,2.625,0,0,0,5.232.016l.768-9.214a1.822,1.822,0,0,1,2.224,0L42.88,42.6a2.616,2.616,0,0,0,5.217-.039c.158-2.368.529-6.963.736-9.493a1.166,1.166,0,0,1,2.324.008l.731,9.508a2.625,2.625,0,0,0,5.232.016l.851-10.207A1.445,1.445,0,0,1,60,32.347ZM56.547,30.2l-.5,1.487a1.027,1.027,0,0,0-.048.233l-.876,10.518a.625.625,0,0,1-1.245,0l-.731-9.508a3.165,3.165,0,0,0-6.311-.017c-.208,2.534-.58,7.142-.738,9.523a.616.616,0,0,1-1.229.006L44,31.917a1.027,1.027,0,0,0-.048-.233l-.5-1.487A28.287,28.287,0,0,1,42.41,26H47v1a1,1,0,0,0,1,1h4a1,1,0,0,0,1-1V26h4.59A28.287,28.287,0,0,1,56.547,30.2Z"/></g></svg>