<svg xmlns="http://www.w3.org/2000/svg" viewBox="0 0 64 64"><title>white-tooth-healthcare-dental</title><g id="outline"><path d="M2.836,7.986a3.868,3.868,0,0,1,3.178,3.179,1,1,0,0,0,1.972,0,3.868,3.868,0,0,1,3.178-3.179,1,1,0,0,0,0-1.972A3.868,3.868,0,0,1,7.986,2.835a1,1,0,0,0-1.972,0A3.868,3.868,0,0,1,2.836,6.014a1,1,0,0,0,0,1.972ZM7,5.572A5.87,5.87,0,0,0,8.428,7,5.87,5.87,0,0,0,7,8.428,5.87,5.87,0,0,0,5.572,7,5.87,5.87,0,0,0,7,5.572Z"/><path d="M12.776,38.928l.286.459,4.318,19a4.646,4.646,0,0,0,9.114-.267l3-17.994a2.542,2.542,0,0,1,5.014,0l3,17.993a4.647,4.647,0,0,0,9.115.266l4.316-19,.287-.459A31.384,31.384,0,0,0,56,22.275,14.275,14.275,0,0,0,36.1,9.154a10.461,10.461,0,0,1-8.2,0A14.275,14.275,0,0,0,8,22.275,31.384,31.384,0,0,0,12.776,38.928ZM22.275,10a12.22,12.22,0,0,1,4.836.992,12.458,12.458,0,0,0,9.778,0A12.276,12.276,0,0,1,54,22.275a29.4,29.4,0,0,1-4.472,15.594l-.376.6a1.041,1.041,0,0,0-.128.308L44.671,57.939a2.647,2.647,0,0,1-5.192-.151l-3-17.993a4.541,4.541,0,0,0-8.958,0l-3,17.994a2.646,2.646,0,0,1-5.191.152L14.976,38.778a1.041,1.041,0,0,0-.128-.308l-.376-.6A29.4,29.4,0,0,1,10,22.275,12.289,12.289,0,0,1,22.275,10Z"/><path d="M15,22c0-5.071,4.03-5.984,4.2-6.021L19,15l-.2-.98C16.8,14.421,13,16.605,13,22Z"/><rect x="21" y="14" width="2" height="2"/><path d="M61.164,48.014a3.868,3.868,0,0,1-3.178-3.179,1,1,0,0,0-1.972,0,3.868,3.868,0,0,1-3.178,3.179,1,1,0,0,0,0,1.972,3.868,3.868,0,0,1,3.178,3.179,1,1,0,0,0,1.972,0,3.868,3.868,0,0,1,3.178-3.179,1,1,0,0,0,0-1.972ZM57,50.428A5.87,5.87,0,0,0,55.572,49,5.87,5.87,0,0,0,57,47.572,5.87,5.87,0,0,0,58.428,49,5.87,5.87,0,0,0,57,50.428Z"/></g></svg>