<svg id="Capa_1" enable-background="new 0 0 512.269 512.269" height="512" viewBox="0 0 512.269 512.269" width="512" xmlns="http://www.w3.org/2000/svg"><g><path d="m438.285 125.973c-56.545-13.303-115.821-8.78-169.694 12.948-7.107 2.866-15.043 2.899-22.174.092l-3.258-1.283c-53.254-20.967-111.635-25.198-167.356-12.127l-58.885 13.813c-9.911 2.325-16.918 11.166-16.918 21.346v80.061l256.941 36.332 255.19-36.332.138-80.044c.016-10.188-6.988-19.045-16.905-21.378z" fill="#ffccd2"/><path d="m495.365 139.072-57.08-13.428c-56.545-13.303-115.821-8.78-169.694 12.948-3.929 1.585-8.112 2.299-12.271 2.15v135.996l.622.088 255.19-36.332.138-80.044c.015-10.188-6.988-19.045-16.905-21.378z" fill="#ffa6a8"/><path d="m121.047 199.388c-22.285 0-40.351 18.066-40.351 40.351v45.84c0 13.308 10.788 24.096 24.096 24.096h12.216l44.39-30.642v-39.294c-.001-22.286-18.066-40.351-40.351-40.351z" fill="#fff5f5"/><path d="m208.787 202.072c-26.252 0-47.533 21.281-47.41 47.533v67.538h70.847c13.308 0 24.096.09 24.096-16.052v-51.486c0-26.251-21.282-47.533-47.533-47.533z" fill="#81a1b1"/><g fill="#dfebf1"><path d="m161.395 279.033c-26.252 0-47.533 21.281-47.41 47.533v43.442c-.123 13.308 10.665 24.096 23.972 24.096h46.875c13.308 0 24.096.09 24.096-16.052v-51.486c0-26.252-21.281-47.533-47.533-47.533z"/><path d="m327.29 317.143h-46.875c-13.308 0-24.096.09-24.096-16.052v-51.486c0-26.252 21.281-47.533 47.533-47.533 26.252 0 47.533 21.281 47.533 47.533v43.442c.001 13.308-10.787 24.096-24.095 24.096z"/><path d="m407.848 309.675h-32.51c-13.308 0-24.096-10.788-23.952-24.096v-45.84c-.144-22.285 17.922-40.351 40.207-40.351 22.285 0 40.351 18.066 40.43 40.351v45.84c-.079 13.308-10.867 24.096-24.175 24.096z"/><path d="m488.036 293.047h-32.51c-12.989 0-23.518-4.153-23.518-17.142v-39.956c0-21.966 17.807-39.773 39.773-39.773 22.285 0 40.351 18.066 40.351 40.351v38.801c-.001 13.308-10.789 17.719-24.096 17.719z"/></g><path d="m56.606 293.047h-32.51c-13.308 0-24.096-4.411-24.096-17.719v-38.801c0-22.285 18.066-40.351 40.351-40.351 22.285 0 40.351 18.066 40.351 40.351v38.801c0 13.308-10.788 17.719-24.096 17.719z" fill="#fff5f5"/></g></svg>