<svg id="Gradient" viewBox="0 0 512 512" xmlns="http://www.w3.org/2000/svg" xmlns:xlink="http://www.w3.org/1999/xlink"><linearGradient id="linear-gradient" gradientUnits="userSpaceOnUse" x1="255.94" x2="255.94" y1="425.63" y2="343.91"><stop offset="0" stop-color="#dedee6"/><stop offset=".64336" stop-color="#c9cbea"/><stop offset="1" stop-color="#bcbfec"/></linearGradient><linearGradient id="linear-gradient-2" x1="256" x2="256" xlink:href="#linear-gradient" y1="351.91" y2="266.73"/><linearGradient id="linear-gradient-3" gradientUnits="userSpaceOnUse" x1="255.94" x2="255.94" y1="312.23" y2="86.37"><stop offset="0" stop-color="#1c1c1c"/><stop offset=".26277" stop-color="#2a2a2a"/><stop offset=".67956" stop-color="#3a3a3a"/><stop offset="1" stop-color="#404040"/></linearGradient><linearGradient id="linear-gradient-4" gradientUnits="userSpaceOnUse" x1="256" x2="256" y1="228.943" y2="142.1"><stop offset=".44899" stop-color="#f29680"/><stop offset="1" stop-color="#f9b6a6"/></linearGradient><linearGradient id="linear-gradient-5" gradientUnits="userSpaceOnUse" x1="372.356" x2="412.33" y1="202.89" y2="202.89"><stop offset="0" stop-color="#faeddf"/><stop offset="1" stop-color="#e3d2cf"/></linearGradient><linearGradient id="linear-gradient-6" x1="316.284" x2="377.59" xlink:href="#linear-gradient-5" y1="211.58" y2="211.58"/><linearGradient id="linear-gradient-7" gradientTransform="matrix(-1 0 0 1 512 0)" x1="372.356" x2="412.33" xlink:href="#linear-gradient-5" y1="202.89" y2="202.89"/><linearGradient id="linear-gradient-8" gradientTransform="matrix(-1 0 0 1 512 0)" x1="316.284" x2="377.59" xlink:href="#linear-gradient-5" y1="211.58" y2="211.58"/><linearGradient id="linear-gradient-9" x1="242.409" x2="325.48" xlink:href="#linear-gradient-5" y1="220.265" y2="220.265"/><linearGradient id="linear-gradient-10" x1="186.52" x2="256" xlink:href="#linear-gradient-5" y1="220.265" y2="220.265"/><g id="Computer_2" data-name="Computer 2"><path d="m365.28 404.39v21.24h-218.68v-21.24a9.99724 9.99724 0 0 1 10-10h68.1v-50.48h62.48v50.48h68.1a10.00365 10.00365 0 0 1 10 10z" fill="url(#linear-gradient)"/><path d="m474.74 336.21a15.6139 15.6139 0 0 1 -15.62 15.7h-406.12a15.62453 15.62453 0 0 1 -15.62-15.54l-.12-24.14 218.74013-45.5 218.61987 45.5z" fill="url(#linear-gradient-2)"/><circle cx="435.57" cy="332.07" fill="#f46487" r="7.5"/><path d="m474.62 101.99v210.24h-437.36v-210.24a15.61576 15.61576 0 0 1 15.62-15.62h406.12a15.62216 15.62216 0 0 1 15.62 15.62z" fill="url(#linear-gradient-3)"/><path d="m412.33 194.21v-34.74a17.37408 17.37408 0 0 0 -17.37-17.37h-277.92a17.37408 17.37408 0 0 0 -17.37 17.37v34.74l156.27 34.73321z" fill="url(#linear-gradient-4)"/><path d="m377.59 202.89v-8.23c0-9.73 7.96-18 17.7-17.82a17.378 17.378 0 0 1 17.04 17.37v16.91c0 9.74-7.97 18.01-17.71 17.82a17.35414 17.35414 0 0 1 -17.03-17.36l-5.23437-3.31544z" fill="url(#linear-gradient-5)"/><path d="m377.59 225.09a21.23641 21.23641 0 0 1 -21.23 21.23h-13.51a17.36768 17.36768 0 0 1 -17.37-17.37l-9.19606-8.685 9.19606-8.685v-8.15c0-14.19 11.13-26.19 25.32-26.58a26.05421 26.05421 0 0 1 26.79 26.04z" fill="url(#linear-gradient-6)"/><path d="m134.41 202.89v-8.23c0-9.73-7.96-18-17.7-17.82a17.378 17.378 0 0 0 -17.04 17.37v16.91c0 9.74 7.97 18.01 17.71 17.82a17.35414 17.35414 0 0 0 17.03-17.36l5.23437-3.31544z" fill="url(#linear-gradient-7)"/><path d="m134.41 225.09a21.23641 21.23641 0 0 0 21.23 21.23h13.51a17.36768 17.36768 0 0 0 17.37-17.37l9.19606-8.685-9.19606-8.685v-8.15c0-14.19-11.13-26.19-25.32-26.58a26.05421 26.05421 0 0 0 -26.79 26.04z" fill="url(#linear-gradient-8)"/><path d="m256 211.58a34.74 34.74 0 0 1 69.48 0v28.69a23.42578 23.42578 0 0 1 -23.42 23.42h-28.69a17.37408 17.37408 0 0 1 -17.37-17.37l-13.59116-17.37679z" fill="url(#linear-gradient-9)"/><path d="m256 211.58v34.74a17.37408 17.37408 0 0 1 -17.37 17.37h-28.69a23.42578 23.42578 0 0 1 -23.42-23.42v-28.69a34.74 34.74 0 0 1 69.48 0z" fill="url(#linear-gradient-10)"/></g></svg>