<svg enable-background="new 0 0 512 512" viewBox="0 0 512 512" xmlns="http://www.w3.org/2000/svg"><g id="_x31_1_Smile"><g><g><path d="m248.443 114.213c6.27-.06 12.336-2.339 16.997-6.537 18.854-16.982 43.574-27.275 70.678-27.275 1.502 0 2.957.048 4.412.096 57.123 2.354 102.699 50.482 102.699 109.465 0 22.071-6.372 42.617-17.337 59.812-27.049 42.415-46.667 89.13-63.373 136.59-13.915 39.532-34.039 64.365-56.441 64.365-16.011 0-30.889-12.704-43.155-34.408-6.469-11.446-22.614-11.451-29.088-.008-12.283 21.709-27.163 34.416-43.175 34.416-22.402 0-42.526-24.833-56.441-64.365-16.706-47.46-36.324-94.174-63.373-136.59-10.966-17.196-17.337-37.741-17.337-59.812 0-58.983 45.576-107.112 102.699-109.465 1.455-.048 2.911-.052 4.412-.096 31.939-.939 55.79 14.13 70.506 27.437 4.716 4.266 10.96 6.435 17.317 6.375z" fill="#cfced3"/></g><g><path d="m439.227 131.025 3.147 18.513c1.396 8.213-7.181 14.472-14.517 10.594l-16.521-8.734c-2.915-1.541-6.398-1.541-9.313 0l-16.503 8.724c-7.34 3.88-15.919-2.386-14.516-10.602l3.159-18.49c.558-3.263-.519-6.593-2.878-8.904l-13.345-13.07c-5.937-5.815-2.666-15.949 5.537-17.152l18.463-2.707c3.258-.478 6.073-2.536 7.529-5.504l8.246-16.812c3.667-7.476 14.27-7.479 17.942-.007l8.268 16.825c1.457 2.964 4.27 5.02 7.525 5.497l18.468 2.708c8.203 1.203 11.475 11.337 5.537 17.152l-13.349 13.074c-2.356 2.308-3.433 5.634-2.879 8.895z" fill="#f4feff"/></g><g><path d="m126.826 308.826 2.6 15.294c1.154 6.785-5.932 11.956-11.993 8.752l-13.649-7.215c-2.408-1.273-5.285-1.273-7.694 0l-13.634 7.207c-6.064 3.206-13.152-1.971-11.992-8.759l2.61-15.275c.461-2.696-.429-5.447-2.378-7.356l-11.025-10.798c-4.905-4.804-2.202-13.176 4.575-14.17l15.253-2.236c2.691-.395 5.017-2.095 6.22-4.547l6.812-13.889c3.029-6.176 11.789-6.179 14.822-.006l6.83 13.9c1.203 2.449 3.528 4.147 6.217 4.541l15.257 2.237c6.777.994 9.48 9.366 4.575 14.17l-11.028 10.801c-1.947 1.907-2.836 4.655-2.378 7.349z" fill="#ffc000"/></g><path d="m219.449 160.242c0-3.069-2.488-5.556-5.556-5.556h-20.577c-3.067 0-5.556 2.487-5.556 5.556s2.488 5.556 5.556 5.556h20.577c3.068-.001 5.556-2.487 5.556-5.556z"/><path d="m303.123 154.686h-20.573c-3.067 0-5.556 2.487-5.556 5.556s2.488 5.556 5.556 5.556h20.573c3.067 0 5.556-2.487 5.556-5.556s-2.489-5.556-5.556-5.556z"/><path d="m281.436 210.658c-2.72-1.407-6.076-.347-7.487 2.38-5.02 9.697-14.88 15.723-25.727 15.723-10.851 0-20.71-6.026-25.727-15.723-1.411-2.727-4.763-3.791-7.487-2.38s-3.791 4.76-2.38 7.487c6.934 13.401 20.573 21.727 35.594 21.727 15.017 0 28.657-8.326 35.594-21.727 1.41-2.724.347-6.077-2.38-7.487z"/><path d="m450.725 86.405-18.468-2.705c-1.447-.213-2.698-1.128-3.346-2.449l-8.268-16.829c-2.64-5.369-7.986-8.706-13.954-8.706-.004 0-.007 0-.007 0-5.971.004-11.317 3.344-13.954 8.719l-8.247 16.813c-1.345 2.751-3.986 2.433-4.584 2.632-13.981-5.999-28.905-9.034-43.778-9.034-27.427 0-53.848 10.194-74.4 28.704-3.602 3.248-8.337 5.062-13.332 5.109-5.114-.009-9.965-1.707-13.538-4.939-38.516-34.834-76.394-28.187-78.87-28.772-60.575 2.494-108.025 53.017-108.025 115.014 0 22.407 6.297 44.123 18.207 62.8 3.37 5.285 6.651 10.789 9.896 16.395l-12.613 1.852c-5.23.767-9.502 4.369-11.14 9.411-1.649 5.056-.315 10.507 3.479 14.222l11.024 10.8c.647.637.944 1.552.788 2.452l-2.608 15.274c-.901 5.255 1.219 10.46 5.534 13.581 4.282 3.107 9.852 3.498 14.529 1.024l13.639-7.205c.778-.423 1.718-.409 2.496 0l6.988 3.695c7.031 16.596 13.931 34.425 20.801 53.944 15.455 43.902 37.363 68.077 61.683 68.077 17.625 0 34.227-12.876 48.011-37.236 2.04-3.606 5.668-5.758 9.708-5.758s7.671 2.156 9.711 5.765c13.762 24.356 30.357 37.229 47.989 37.229 24.324 0 46.231-24.175 61.683-68.077 19.806-56.261 39.764-99.298 62.815-135.446 17.561-27.536 22.509-61.031 14.456-92.28 2.475-3.354 3.546-7.592 2.818-11.876l-3.147-18.513c-.246-1.467.235-2.96 1.291-3.995l13.35-13.073c4.272-4.185 5.776-10.323 3.921-16.019-1.847-5.674-6.65-9.736-12.538-10.6zm-357.231 234.34-13.636 7.205c-1.284.68-2.315.166-2.821-.199-.416-.3-1.36-1.172-1.096-2.709l2.608-15.271c.77-4.496-.713-9.078-3.964-12.265l-11.024-10.8c-1.107-1.085-.854-2.351-.691-2.846.156-.485.687-1.638 2.185-1.855l15.252-2.239c4.507-.662 8.395-3.501 10.399-7.595l6.814-13.893c.673-1.374 1.917-1.523 2.423-1.523s1.751.148 2.423 1.523l6.832 13.903c2.011 4.087 5.896 6.923 10.395 7.585l15.26 2.239c1.494.217 2.025 1.371 2.181 1.855.163.496.416 1.761-.691 2.846l-11.028 10.804c-3.244 3.179-4.727 7.755-3.968 12.243v.007l2.601 15.289c.26 1.541-.684 2.409-1.1 2.713-.506.365-1.548.879-2.821.199l-13.647-7.216c-3.961-2.095-8.792-2.168-12.886 0zm327.713-73.958c-23.521 36.885-43.833 80.65-63.929 137.731-13.567 38.549-32.23 60.655-51.201 60.655-16.916 0-30.176-17.177-38.317-31.586-4.036-7.143-11.281-11.408-19.379-11.408h-.004c-8.095 0-15.339 4.261-19.379 11.4-8.156 14.413-21.426 31.594-38.339 31.594-18.967 0-37.63-22.106-51.201-60.655-5.668-16.106-11.362-31.076-17.134-45.202 2.484-.189 4.921-1.018 7.039-2.552 4.311-3.121 6.431-8.322 5.537-13.578l-2.601-15.285c-.152-.904.145-1.819.792-2.456l11.028-10.804c3.794-3.715 5.129-9.165 3.479-14.222-1.638-5.042-5.91-8.644-11.136-9.411l-15.256-2.239c-.879-.127-1.642-.687-2.036-1.49l-6.832-13.903c-2.344-4.771-7.093-7.733-12.395-7.733-.004 0-.004 0-.007 0-5.302.004-10.051 2.969-12.391 7.74l-3.562 7.264c-2.778-4.717-5.584-9.362-8.453-13.861-10.771-16.887-16.464-36.538-16.464-56.825 0-56.019 42.77-101.664 97.324-103.913 2.065.488 36.491-5.306 71.011 25.91 5.574 5.044 12.945 7.813 20.783 7.813.105 0 .21-.002.311-.002h.004c7.704-.074 15.043-2.903 20.66-7.964 18.508-16.668 42.289-25.848 66.963-25.848 7.262 0 14.126.794 21.17 2.317-3.332 1.877-5.919 4.926-7.158 8.729-1.852 5.697-.351 11.834 3.921 16.023l13.346 13.068c1.06 1.038 1.541 2.532 1.288 4.002l-3.158 18.49c-1.013 5.919 1.374 11.78 6.228 15.296 4.829 3.496 11.089 3.939 16.359 1.154l16.504-8.726c1.288-.682 2.832-.685 4.12 0l16.522 8.735c2.977 1.575 6.346 2.174 9.811 1.591 6.292 28.245.93 56.953-13.868 80.151zm30.361-141.701-13.354 13.077c-3.653 3.584-5.32 8.738-4.463 13.791v.002l3.147 18.513c.427 2.51-1.114 3.932-1.798 4.425-.666.483-2.46 1.481-4.644.326l-16.522-8.735c-4.534-2.397-9.965-2.402-14.507 0l-16.504 8.726c-2.185 1.159-3.982.156-4.648-.329-.68-.494-2.224-1.915-1.794-4.427l3.158-18.484c.868-5.06-.799-10.223-4.463-13.815l-13.346-13.068c-1.808-1.772-1.393-3.839-1.132-4.644.26-.796 1.128-2.684 3.588-3.045l18.464-2.707c5.071-.743 9.447-3.941 11.708-8.552l8.247-16.811c1.107-2.255 3.154-2.501 3.982-2.501h.004c.828 0 2.875.244 3.982 2.496l8.268 16.829c2.264 4.604 6.641 7.798 11.704 8.541l18.468 2.707c2.46.36 3.328 2.25 3.588 3.045.263.804.675 2.869-1.133 4.64z"/></g></g><g id="Layer_1"/></svg>