<?xml version="1.0" encoding="iso-8859-1"?>
<!-- Generator: Adobe Illustrator 19.0.0, SVG Export Plug-In . SVG Version: 6.00 Build 0)  -->
<svg xmlns="http://www.w3.org/2000/svg" xmlns:xlink="http://www.w3.org/1999/xlink" version="1.1" id="Capa_1" x="0px" y="0px" viewBox="0 0 512.059 512.059" style="enable-background:new 0 0 512.059 512.059;" xml:space="preserve" width="512" height="512">
<g>
	<g>
		<path style="fill:#F9C295;" d="M294.928,494.255c-1.78,6.271-7.476,10.304-13.616,10.304c-1.584,0-3.195-0.262-4.766-0.825    c-20.647-7.358-59.231-20.843-84.905-28.241c-26.814-7.738-46.544-5.904-69.614-10.631c-23.056-4.726-26.905-44.868-4.766-69.129    c1.898-12.124-10.919-90.208-30.493-125.27c-31.501-56.455-43.14-97.998-26.395-141.19c-6.965,5.08-29.864,22.1-51.114,37.942    V23.824C58.659,8.44,101.263-0.424,123.573,17.539c27.429,22.1,50.917,243.509,51.991,346.103    c0.17,16.026,7.62,31.108,20.202,41.045l94.319,74.575C294.588,482.811,296.5,488.729,294.928,494.255z"/>
		<path style="fill:#E8A26A;" d="M290.084,479.263l-94.319-74.575c-12.582-9.937-20.032-25.02-20.202-41.045    C174.49,261.049,151.002,39.64,123.573,17.54C112.219,8.398,95.602,6.214,75.515,8.292c9.206,1.256,17.104,4.187,23.39,9.248    c27.429,22.1,50.917,243.509,51.991,346.103c0.17,16.025,7.62,31.108,20.202,41.045l94.319,74.575    c4.504,3.548,6.415,9.466,4.844,14.991c-0.668,2.354-1.888,4.392-3.476,6.021c3.551,1.251,6.84,2.417,9.76,3.458    c1.571,0.563,3.182,0.825,4.766,0.825c6.14,0,11.836-4.033,13.616-10.304C296.5,488.729,294.588,482.812,290.084,479.263z"/>
		<g>
			<path style="fill:#D8E6F0;" d="M488.889,197.933c4.947-5.195,5.181-13.28,0.534-18.746c-15.71-18.479-50.582-57.416-70.372-63.48     c-30.116-9.228-121.693,4.512-154.772,9.953c-6.975,1.147-12.082,7.174-12.082,14.243v95.734c0,7.973,6.463,14.436,14.436,14.436     h112.779c6.213,0,11.6,4.295,12.985,10.351l26.905,117.644c3.398,14.857,18.197,24.147,33.054,20.749h0     c14.857-3.398,24.147-18.197,20.749-33.054l-25.329-110.752c-1.601-7.002,0.414-14.34,5.367-19.541L488.889,197.933z"/>
			<path style="fill:#AAC0D1;" d="M488.889,197.933c4.948-5.195,5.181-13.28,0.534-18.746c-15.71-18.479-50.583-57.416-70.372-63.48     c-9.683-2.967-25.725-3.557-44.129-2.815c7.662,0.419,14.217,1.31,19.129,2.815c19.79,6.064,54.662,45.001,70.372,63.48     c4.646,5.466,4.413,13.551-0.534,18.746l-35.745,37.537c-4.953,5.201-6.969,12.54-5.367,19.541l25.329,110.752     c2.882,12.603-3.366,25.159-14.396,30.755c20.727,10.54,44.598-8.012,39.396-30.755l-25.329-110.752     c-1.601-7.001,0.414-14.34,5.367-19.541L488.889,197.933z"/>
			<path style="fill:#78BAF6;" d="M395.465,273.841h-12.751c-8.584,0-15.543,6.959-15.543,15.543l0,0     c0,8.584,6.959,15.543,15.543,15.543h19.861L395.465,273.841z"/>
			<path style="fill:#78BAF6;" d="M220.768,156.335v56.215c0,3.387,2.746,6.132,6.132,6.132h25.297v-68.48H226.9     C223.513,150.202,220.768,152.948,220.768,156.335z"/>
			<path style="fill:#606572;" d="M419.302,378.068c3.398,14.857,18.197,24.147,33.054,20.749l0,0     c14.857-3.398,24.147-18.197,20.749-33.054l-12.249-53.556c-7.916,22.82-22.145,45.502-42.897,59.993L419.302,378.068z"/>
			<path style="fill:#3B4254;" d="M460.857,312.207c-4.066,11.721-9.81,23.396-17.235,33.953l4.483,19.603     c2.882,12.603-3.366,25.159-14.396,30.755h0c20.876,10.648,44.583-8.078,39.396-30.755L460.857,312.207z"/>
		</g>
	</g>
	<g>
		<path d="M294.736,473.381l-94.322-74.579c-10.88-8.592-17.204-21.437-17.35-35.237c-0.646-61.603-9.841-174.385-24.114-256.491    c-0.71-4.079-4.592-6.82-8.674-6.104c-4.081,0.709-6.814,4.592-6.104,8.673c14.143,81.357,23.255,193.074,23.893,254.08    c0.195,18.359,8.598,35.436,23.05,46.849l94.33,74.585c2.121,1.672,3.013,4.438,2.271,7.052c-0.811,2.856-3.443,4.852-6.401,4.852    c-0.771,0-1.522-0.13-2.249-0.39c-20.763-7.399-59.459-20.925-85.343-28.382c-16.441-4.745-30.168-6.024-43.443-7.263    c-9.07-0.846-17.637-1.645-26.744-3.511c-6.888-1.411-10.215-7.494-11.794-12.349c-3.725-11.453-1.852-30.226,11.063-44.377    c0.992-1.087,1.642-2.441,1.87-3.896c2.326-14.86-11.501-94.522-31.354-130.085c-33.213-59.524-40.489-97.326-25.951-134.825    c1.203-3.104,0.217-6.629-2.423-8.658c-2.641-2.027-6.3-2.072-8.99-0.112c-7.528,5.491-32.273,23.896-51.176,37.989    c-3.321,2.476-4.006,7.175-1.53,10.495c2.476,3.321,7.173,4.008,10.495,1.53c10.663-7.949,23.185-17.271,33.409-24.859    c-7.54,40.771,7.78,80.431,33.067,125.751c18.478,33.098,29.92,103.536,29.755,118.558c-13.458,16.093-18.488,38.716-12.5,57.129    c3.915,12.038,12.315,20.204,23.047,22.404c9.91,2.03,19.291,2.905,28.363,3.751c12.583,1.173,25.594,2.387,40.68,6.74    c25.499,7.346,63.864,20.758,84.451,28.094c2.342,0.839,4.797,1.265,7.297,1.265c9.632,0,18.198-6.479,20.83-15.753    C304.554,487.822,301.642,478.821,294.736,473.381z"/>
		<path d="M11.491,30.985c43.752-13.626,87.044-23.977,107.375-7.606c2.126,1.713,9.823,10.868,19.643,56.786    c0.753,3.522,3.864,5.934,7.326,5.934c0.52,0,1.048-0.055,1.576-0.168c4.051-0.866,6.632-4.852,5.766-8.902    c-10.482-49.021-19.23-60.763-24.901-65.331C103.902-7.928,62.179-0.51,7.03,16.663C3.076,17.896,0.868,22.1,2.1,26.055    C3.331,30.009,7.528,32.214,11.491,30.985z"/>
		<path d="M404.287,208.304c0.852,0,1.718-0.146,2.564-0.454c3.892-1.417,5.899-5.721,4.482-9.613l-14.42-39.618    c-1.416-3.892-5.721-5.897-9.613-4.482c-3.892,1.417-5.899,5.721-4.482,9.613l14.42,39.618    C398.347,206.412,401.223,208.304,404.287,208.304z"/>
		<path d="M355.33,203.367c1.108,3.045,3.984,4.937,7.049,4.937c0.852,0,1.718-0.146,2.564-0.454    c3.892-1.417,5.899-5.721,4.482-9.613l-14.42-39.618c-1.417-3.892-5.721-5.897-9.613-4.482c-3.892,1.417-5.899,5.721-4.482,9.613    L355.33,203.367z"/>
		<path d="M502.8,431.739H500c-17.614,0-33.244-11.531-38.531-28.219c14.294-6.87,22.705-23.001,18.948-39.429l-25.329-110.752    c-1.044-4.563,0.26-9.309,3.487-12.697l35.745-37.537c7.614-7.996,7.966-20.367,0.816-28.774    c-41.002-48.23-62.812-62.4-73.888-65.794c-13.022-3.99-36.105-4.513-70.562-1.601c-4.128,0.35-7.19,3.979-6.842,8.105    c0.35,4.129,3.973,7.17,8.105,6.842c39.937-3.378,57.338-1.323,64.903,0.995c12.577,3.854,37.569,26.72,66.854,61.168    c2.164,2.545,2.056,6.291-0.252,8.715l-35.745,37.537c-6.706,7.042-9.415,16.905-7.247,26.385l12.586,55.033    c-6.907,18.99-17.49,35.326-30.447,47.149l-12.715-55.596c-0.001-0.004-0.001-0.009-0.002-0.014l-6.144-26.861l-4.035-17.642    c-2.178-9.525-10.524-16.179-20.297-16.179H266.633c-3.825,0-6.937-3.111-6.937-6.937v-16.955v-68.479v-10.299    c0-3.412,2.439-6.29,5.8-6.843c13.521-2.224,34.388-5.44,57.021-8.141c4.112-0.491,7.049-4.223,6.559-8.336    c-0.491-4.113-4.227-7.05-8.336-6.559c-22.905,2.732-44.009,5.986-57.679,8.234c-10.642,1.75-18.365,10.853-18.365,21.644v2.799    h-17.796c-7.518,0-13.633,6.115-13.633,13.633v56.214c0,7.518,6.115,13.633,13.633,13.633h17.796v9.455    c0,12.096,9.841,21.937,21.937,21.937h112.778c2.732,0,5.065,1.859,5.674,4.522l0.971,4.245h-3.342    c-12.706,0-23.043,10.337-23.043,23.043s10.337,23.043,23.043,23.043h13.882c16.158,70.651,15.641,69.803,17.935,74.612    c5.795,12.197,18.428,20.247,32.327,19.965c6.921,23.442,28.627,39.735,53.142,39.735h2.8c4.143,0,7.5-3.357,7.5-7.5    S506.943,431.739,502.8,431.739z M228.268,211.182v-53.479h16.429v53.479H228.268z M458.618,336.061l7.176,31.374    c0.15,0.654,0.266,1.311,0.35,1.968c1.873,14.643-12.266,26.224-26.253,21.563c-6.442-2.147-11.657-7.482-13.278-14.57    l-0.247-1.08C439.128,365.39,450.158,351.917,458.618,336.061z M382.714,297.427c-4.435,0-8.043-3.608-8.043-8.043    s3.608-8.043,8.043-8.043h6.772l0.103,0.45l3.576,15.636H382.714z"/>
	</g>
</g>















</svg>
