<?xml version="1.0" encoding="UTF-8"?>
<svg xmlns="http://www.w3.org/2000/svg" viewBox="0 0 64 64" width="512" height="512"><g id="Filled_outline" data-name="Filled outline"><path d="M3,17a40.788,40.788,0,0,0,.65,7.252L4,26C6.982,37.93,14.954,45.909,25,53h0c3.936,2.788,9.986,2.676,14,0l3.153-2.04A41.807,41.807,0,0,0,60,26h0a39.269,39.269,0,0,0,1-8.807V3H3Z" style="fill:#ffd782"/><path d="M39,38a5.9,5.9,0,0,0-4,0,6.375,6.375,0,0,1-6,0,7.707,7.707,0,0,0-4,0,4.426,4.426,0,0,1-5-1l1,1c3.043,3.55,6.325,6,11,6,4.248,0,9-3,12-6l1-1A7.692,7.692,0,0,1,39,38Z" style="fill:#c62a4b"/><path d="M19,36l1,1a4.426,4.426,0,0,0,5,1h0a5.376,5.376,0,0,1,4,0,6.375,6.375,0,0,0,6,0,5.376,5.376,0,0,1,4,0h0a7.692,7.692,0,0,0,6-1l1-1-8-3c-2-1-2.885.443-4,1h0a4.129,4.129,0,0,1-4,0h0c-1.16-.58-2-2-4-1Z" style="fill:#e33e5c"/><path d="M41,47h0a2.122,2.122,0,0,1,3,0l9,9-3,3-9-9A2.122,2.122,0,0,1,41,47Z" style="fill:#2d75bb"/><path d="M20,27.586l-4.293-4.293-1.414,1.414L18.586,29H16v2h5a1,1,0,0,0,1-1V25H20Z"/><path d="M49.293,23.293,45,27.586V25H43v5a1,1,0,0,0,1,1h5V29H46.414l4.293-4.293Z"/><path d="M61,2H3A1,1,0,0,0,2,3V17a42.043,42.043,0,0,0,.669,7.446l.361,1.8C6.365,39.594,15.716,47.674,24.422,53.816A13.013,13.013,0,0,0,31.9,56.05a13.931,13.931,0,0,0,7.645-2.212L41.9,52.31,48.586,59l-1.293,1.293,1.414,1.414L51.5,58.914l2.793,2.793,1.414-1.414L52.914,57.5l2.793-2.793-1.414-1.414L53,54.586,47.011,48.6a43.069,43.069,0,0,0,13.96-22.356A40.615,40.615,0,0,0,62,17.19V3A1,1,0,0,0,61,2ZM41.707,49.293a1.121,1.121,0,0,1,1.586-1.586L46.586,51,45,52.586ZM51.586,56,50,57.586,48.914,56.5,50.5,54.914ZM48,52.414,49.086,53.5,47.5,55.086,46.414,54ZM60,17.19a38.432,38.432,0,0,1-.97,8.568A41.054,41.054,0,0,1,45.591,47.177l-.884-.884a3.115,3.115,0,0,0-3.58-.58l-2.538-2.538a25.424,25.424,0,0,0,6.118-4.468l1-1,1-1a1,1,0,0,0-.356-1.644L38.4,32.081a3.638,3.638,0,0,0-4.192.593,5.017,5.017,0,0,1-.653.431,3.16,3.16,0,0,1-3.106,0,5.122,5.122,0,0,1-.683-.449,3.584,3.584,0,0,0-4.158-.575l-7,3a1,1,0,0,0-.313,1.626l1,1,.948.944C22.774,41.607,26.4,45,32,45a13.091,13.091,0,0,0,4.639-.947l3.074,3.074a3.113,3.113,0,0,0,.58,3.58l.157.157-2,1.3A11.918,11.918,0,0,1,31.9,54.05a11,11,0,0,1-6.323-1.867C13.66,43.776,7.5,35.873,4.98,25.8l-.349-1.749A39.822,39.822,0,0,1,4,17V4H60Zm-24.92,25.3A10.458,10.458,0,0,1,32,43c-3.051,0-5.635-1.125-8.328-3.656a6.129,6.129,0,0,0,1.7-.415,4.4,4.4,0,0,1,3.182-.034,7.361,7.361,0,0,0,6.894,0,4.413,4.413,0,0,1,3.181.033,5.884,5.884,0,0,0,2.438.313,21.941,21.941,0,0,1-3.959,2.452l-1.4-1.4-1.414,1.414ZM20.751,36.337l5.7-2.442c.962-.482,1.355-.194,2.139.377a6.746,6.746,0,0,0,.967.623,5.1,5.1,0,0,0,4.894,0,6.693,6.693,0,0,0,.939-.606c.774-.565,1.2-.878,2.167-.394.031.015,6.591,2.477,6.591,2.477a6.834,6.834,0,0,1-4.773.7,6.392,6.392,0,0,0-4.818.034,5.375,5.375,0,0,1-5.106,0,5.23,5.23,0,0,0-2.321-.49,6.967,6.967,0,0,0-2.5.456A3.411,3.411,0,0,1,20.751,36.337Z"/><path d="M37.64,26.769l-1.28-1.538A9.232,9.232,0,0,1,32,27c-1.462,0-3.872-1.412-4.388-1.791l-1.254,1.558C26.385,26.789,29.528,29,32,29,34.445,29,37.2,27.136,37.64,26.769Z"/><path d="M17,13h2a5.006,5.006,0,0,0,5-5H22a3,3,0,0,1-3,3H17a3,3,0,0,1-3-3H12A5.006,5.006,0,0,0,17,13Z"/><path d="M46,13h2a5.006,5.006,0,0,0,5-5H51a3,3,0,0,1-3,3H46a3,3,0,0,1-3-3H41A5.006,5.006,0,0,0,46,13Z"/></g></svg>
