<svg height="512" viewBox="0 0 48 48" width="512" xmlns="http://www.w3.org/2000/svg"><g id="smile_with_teeth" data-name="smile with teeth"><path d="m47 13s-1.61 9.25-7.63 16a19.86 19.86 0 0 1 -15.37 7c-19 0-23-23-23-23 6.61-.93 16.29-1.68 23 0 6.56-1.64 16.33-.95 23 0z" fill="#db5669"/><path d="m47 13s-1.61 9.25-7.63 16c-10.8 9.53-30.16 6.45-36-16.31 6.33-.69 14.45-1.24 20.63.31 6.56-1.64 16.33-.95 23 0z" fill="#f26674"/><path d="m24 29c12 0 18-13 18-13-14.3 2.6-21.7 2.6-36 0 0 0 6 13 18 13z" fill="#db5669"/><path d="m13 23a2 2 0 0 0 -1.42.6c-.62-.6-1.19-1.21-1.7-1.81a2 2 0 0 0 1.12-1.79v1a2 2 0 0 0 2 2z" fill="#db5669"/><path d="m11 16.8v3.2a2 2 0 0 1 -1.12 1.79 27.73 27.73 0 0 1 -3.88-5.79c1.3.24 3.66.61 5 .8z" fill="#dad7e5"/><path d="m11 16.8c0 3.22.05 2.9-.12 3a29.31 29.31 0 0 1 -2.52-3.4c.75.12 1.64.26 2.64.4z" fill="#edebf2"/><path d="m17 17.57v3.43a2 2 0 0 1 -2 2h-2a2 2 0 0 1 -2-2v-4.2c1.89.27 3.82.53 6 .77z" fill="#dad7e5"/><path d="m17 17.57v3.43h-2a2 2 0 0 1 -2-2v-1.92c1.27.17 2.62.34 4 .49z" fill="#edebf2"/><path d="m17 25v2.41a20.7 20.7 0 0 1 -5.42-3.81 2 2 0 0 1 1.42-.6h2a2 2 0 0 1 2 2z" fill="#dad7e5"/><path d="m24 18v4a2 2 0 0 1 -2 2h-3a2 2 0 0 1 -2-2v-4.43a68.14 68.14 0 0 0 7 .43z" fill="#dad7e5"/><path d="m24 18v4h-3a2 2 0 0 1 -2-2v-2.24c1.75.15 3.47.24 5 .24z" fill="#edebf2"/><path d="m31 26v1.41a16.17 16.17 0 0 1 -7 1.59v-3a2 2 0 0 1 2-2h3a2 2 0 0 1 2 2z" fill="#dad7e5"/><path d="m36.42 23.6a20.7 20.7 0 0 1 -5.42 3.81v-2.41a2 2 0 0 1 2-2c1.87 0 2.65-.17 3.42.6z" fill="#dad7e5"/><path d="m37 16.8v4.2a2 2 0 0 1 -2 2h-2a2 2 0 0 1 -2-2v-3.43c1.31-.14 3.55-.41 6-.77z" fill="#dad7e5"/><path d="m37 16.8v4.2h-2a2 2 0 0 1 -2-2v-1.66c1.42-.17 2.78-.34 4-.54z" fill="#edebf2"/><path d="m38.12 21.79c-.51.6-1.08 1.21-1.7 1.81a2 2 0 0 0 -1.42-.6 2 2 0 0 0 2-2v-1a2 2 0 0 0 1.12 1.79z" fill="#db5669"/><path d="m42 16a28.16 28.16 0 0 1 -3.88 5.79 2 2 0 0 1 -1.12-1.79v-3.2c1.23-.17 3.76-.58 5-.8z" fill="#dad7e5"/><path d="m42 16a25.7 25.7 0 0 1 -2.6 4.19c-.54-.71-.4-1.3-.4-3.69 1.83-.29 3-.5 3-.5z" fill="#edebf2"/><path d="m24 26v3a16.17 16.17 0 0 1 -7-1.59 6.79 6.79 0 0 1 .08-2 2 2 0 0 1 1.92-1.41h3a2 2 0 0 1 2 2z" fill="#dad7e5"/><path d="m31 17.57v4.43a2 2 0 0 1 -2 2h-3a2 2 0 0 1 -2-2v-4c2.17 0 4.84-.21 7-.43z" fill="#dad7e5"/><g fill="#edebf2"><path d="m31 17.57v4.43h-3a2 2 0 0 1 -2-2v-2c1.6-.12 3.31-.26 5-.43z"/><path d="m17 25v.41a19.28 19.28 0 0 1 -3.81-2.41h1.81a2 2 0 0 1 2 2z"/><path d="m30.92 25.45a16.12 16.12 0 0 1 -6.92 1.55v-1a2 2 0 0 1 2-2h3a2 2 0 0 1 1.92 1.45z"/><path d="m34.81 23a19.28 19.28 0 0 1 -3.81 2.41v-.41a2 2 0 0 1 2-2z"/><path d="m24 26v1a16.12 16.12 0 0 1 -6.92-1.55 2 2 0 0 1 1.92-1.45h3a2 2 0 0 1 2 2z"/></g></g></svg>