<svg id="&#x421;&#x43B;&#x43E;&#x439;_1" viewBox="0 0 1996.37 1312.07" xmlns="http://www.w3.org/2000/svg"><g stroke-linecap="round" stroke-linejoin="round" stroke-width="65"><g transform="translate(-751.82 -1093.97)"><path d="m2715.68 2373.53v-680.53a125.73 125.73 0 0 0 -125.68-125.76s-267.24 71.71-837.09 71.71-842.91-71.71-842.91-71.71a125.73 125.73 0 0 0 -125.68 125.76v680.56" fill="#fc8a70" stroke="#5e1235"/><path d="m1762.12 1340.39c0-220.51-199-216.31-239.83-213.12a61.84 61.84 0 0 0 -13 2.45l-22.4 6.75a528.92 528.92 0 0 1 -305.2 0 225.14 225.14 0 0 0 -85-8.75c-73 6.54-190.21 43.4-190.21 212.67 0 245.76 129.35 245.76 123.9 531.68 0 0 12.93 471.31 108.92 471.31s3.52-597 195-597.57c191.52.53 99.11 597.57 195 597.57s108.92-471.31 108.92-471.31c-5.45-285.93 123.9-285.93 123.9-531.68z" fill="#fff" stroke="#5e1235"/><path d="m2617.6 1340.39c0-220.51-199-216.31-239.83-213.12a61.84 61.84 0 0 0 -13 2.45l-22.4 6.75a528.92 528.92 0 0 1 -305.2 0 225.14 225.14 0 0 0 -85-8.75c-73 6.54-190.21 43.4-190.21 212.67 0 245.76 129.35 245.76 123.9 531.68 0 0 12.93 471.31 108.92 471.31s3.52-597 195-597.57c191.52.53 99.11 597.57 195 597.57s108.92-471.31 108.92-471.31c-5.44-285.93 123.9-285.93 123.9-531.68z" fill="#fff" stroke="#5e1235"/></g><path d="m1008.99 952.44v238.2" fill="#5e1235" stroke="#fff"/><path d="m444.68 200.02h275.52v236.29h-275.52z" fill="#fff" stroke="#5e1235"/><path d="m1300.17 200.02h275.52v236.29h-275.52z" fill="#fff" stroke="#5e1235"/><path d="m161.81 319.62h1694.95" fill="#fff" stroke="#5e1235"/></g></svg>